<svg xmlns="http://www.w3.org/2000/svg" xml:space="preserve" width="100%" height="100%" version="1.1" viewBox="0 0 21000.02 20815.13"
 xmlns:xlink="http://www.w3.org/1999/xlink">
 <defs>
  <style type="text/css">
   <![CDATA[
    .str0 {stroke:#2B2A29;stroke-width:22.43;stroke-miterlimit:22.9256}
    .str1 {stroke:#A75F4A;stroke-width:22.43;stroke-miterlimit:22.9256}
    .fil0 {fill:#2B2A29}
    .fil1 {fill:#A75F4A}
   ]]>
  </style>
 </defs>
  <path class="fil0 str0" d="M11727.98 1766.95l0 2258.84 3769.01 3769.01 -3769.01 3769.01 0 1591.32 -370.05 0 0 -11388.19 370.05 0 0 0.01zm-954 -1751.1l7341.59 7358.87 -261.64 260.18 -7077.92 -7094.58 -7075.05 7094.58 -261.64 -260.18 7076.08 -7095.62 -3.06 -3.07 261.64 -260.18zm5275.92 5964.18l0 7175.11 -370.05 0 0 -7175.11 370.05 0zm-10127.27 0l0 7175.11 -370.05 0 0 -7175.11 370.05 0zm535.72 520.91l3376.55 3376.55 0 -8110.54 370.05 0 0 11388.19 -357.58 0 -13.02 13.1 -3636.91 -3624.13 260.18 -261.64 3377.28 3365.41 0 -2247.1 -3638.19 -3638.19 261.64 -261.64 0 -0.01zm8515.37 1293.86l-3245.75 -3245.75 0 6491.51 3245.75 -3245.75 0 -0.01zm-9426.38 12964.19l0 -1914.47 210.54 0 0 1740.43 861.79 0 0 174.04 -1072.33 0zm2141.85 -1313.73l193.7 0 -477.22 1313.74 -210.53 0 -474.41 -1313.74 199.3 0 387.39 1108.82 381.77 -1108.82zm530.55 1313.73l0 -1313.74 190.88 0 0 1313.74 -190.88 0zm95.44 -1569.18c-43.04,0 -79.07,-14.98 -108.07,-44.92 -29.01,-29.94 -43.52,-66.43 -43.52,-109.48 0,-41.17 14.51,-76.25 43.52,-105.26 29,-29.01 65.03,-43.51 108.07,-43.51 41.18,0 76.74,14.5 106.68,43.51 29.94,29.01 44.91,65.03 44.91,108.08 0,41.17 -14.97,76.72 -44.91,106.67 -29.94,29.94 -65.5,44.92 -106.68,44.92l0 -0.01zm1403.57 255.45l193.7 0 -477.22 1313.74 -210.53 0 -474.41 -1313.74 199.3 0 387.39 1108.82 381.77 -1108.82zm3292.77 -600.73l235.8 0 0 1914.47 -207.73 0 0 -1529.89 -640.03 1529.89 -196.5 0 -611.96 -1524.27 0 1524.27 -210.54 0 0 -1914.47 258.26 0 670.91 1678.67 701.78 -1678.67 0.01 0zm1858.32 600.73l0 1313.74 -190.88 0 0 -193.7c-54.27,74.86 -120.7,133.34 -199.31,175.45 -78.6,42.11 -164.69,63.16 -258.25,63.16 -125.38,0 -237.66,-29.94 -336.85,-89.82 -99.19,-59.89 -176.85,-143.17 -233,-249.84 -56.14,-106.67 -84.22,-228.31 -84.22,-364.93 0,-134.73 27.61,-254.98 82.81,-360.71 55.21,-105.73 131.93,-188.55 230.18,-248.43 98.25,-59.89 210.07,-89.83 335.45,-89.83 95.45,0 182.94,21.06 262.47,63.17 79.54,42.11 146.44,101.52 200.72,178.25l0 -196.5 190.88 0 0 -0.01zm-654.06 1184.61c89.83,0 169.83,-22.46 240.02,-67.37 70.18,-44.91 124.91,-107.61 164.21,-188.08 39.3,-80.47 58.95,-171.23 58.95,-272.29 0,-101.06 -19.65,-191.82 -58.95,-272.29 -39.3,-80.47 -94.04,-143.17 -164.21,-188.08 -70.19,-44.92 -150.19,-67.37 -240.02,-67.37 -87.95,0 -166.55,22.45 -235.79,67.37 -69.24,44.91 -123.52,107.14 -162.81,186.68 -39.3,79.53 -58.95,169.83 -58.95,270.88 0,102.93 19.65,194.64 58.95,275.11 39.29,80.47 93.57,143.17 162.81,188.08 69.24,44.91 147.84,67.37 235.79,67.37l0 -0.01zm1021.8 129.12l0 -2037.99 190.89 0 0 2037.99 -190.89 0zm569.84 0l0 -2037.99 190.89 0 0 2037.99 -190.89 0z"/>
  <path class="fil1 str1" d="M1696.51 15231.81c200.27,50.92 354.71,149.36 463.33,295.31 108.62,145.95 162.92,337.74 162.92,575.33 0,308.88 -93.34,552.42 -280.03,730.63 -186.69,178.2 -442.95,267.3 -768.82,267.3l-1262.69 0 0 -3472.4 1145.59 0c308.88,0 551.58,80.62 728.09,241.85 176.5,161.23 264.76,375.92 264.76,644.07 0,173.11 -39.04,321.61 -117.11,445.5 -78.07,123.89 -190.08,214.7 -336.04,272.39l0 0.02zm-1303.42 -122.19l809.55 0c363.19,0 544.79,-198.56 544.79,-595.7 0,-179.9 -52.61,-319.08 -157.83,-417.51 -105.23,-98.43 -251.19,-147.65 -437.87,-147.65l-758.63 0 0 1160.86 -0.01 0zm829.91 1675.11c217.23,0 387.79,-61.1 511.69,-183.3 123.89,-122.2 185.83,-288.52 185.83,-498.97 0,-210.45 -61.94,-375.92 -185.83,-496.42 -123.9,-120.49 -294.46,-180.74 -511.69,-180.74l-829.92 0 0 1359.43 829.92 0zm2657.77 -2148.61c213.84,0 407.32,52.6 580.42,157.83 173.12,105.22 308.88,248.63 407.32,430.23 98.43,181.6 147.66,384.41 147.66,608.44 0,64.49 -1.7,113.71 -5.1,147.65l-1960.22 0c13.58,244.39 93.34,453.15 239.3,626.25 145.96,173.11 344.52,259.67 595.71,259.67 203.65,0 372.52,-38.18 506.6,-114.56 134.07,-76.37 241.85,-182.45 323.3,-318.21l274.94 183.29c-112.01,176.5 -259.67,314.83 -442.95,414.95 -183.3,100.14 -400.53,150.21 -651.71,150.21 -230.81,0 -436.17,-54.31 -616.07,-162.94 -179.9,-108.62 -320.77,-259.67 -422.59,-453.14 -101.83,-193.48 -152.75,-412.41 -152.75,-656.8 0,-244.39 50.07,-463.33 150.21,-656.81 100.13,-193.47 239.29,-344.52 417.5,-453.14 178.2,-108.62 381.01,-162.92 608.44,-162.92l-0.01 0zm789.17 1059.02c-33.94,-247.79 -117.11,-433.62 -249.48,-557.51 -132.38,-123.9 -312.28,-185.85 -539.7,-185.85 -220.63,0 -401.39,70.43 -542.25,211.3 -140.86,140.87 -229.96,318.21 -267.3,532.06l1598.73 0zm2036.6 -1059.02c227.41,0 431.08,54.31 610.98,162.92 179.89,108.62 320.76,259.67 422.59,453.14 101.83,193.48 152.74,414.11 152.74,661.9 0,244.39 -50.07,462.48 -150.2,654.26 -100.14,191.78 -239.3,341.97 -417.5,450.59 -178.21,108.63 -381.02,162.94 -608.44,162.94 -173.11,0 -331.79,-38.19 -476.06,-114.56 -144.25,-76.38 -265.61,-184.14 -364.04,-323.31l0 1374.71 -346.21 0 0 -3401.12 346.21 0 0 351.32c98.43,-135.78 218.94,-241.85 361.5,-318.21 142.56,-76.38 298.7,-114.56 468.42,-114.56l0.01 -0.02zm10.18 2230.06c159.53,0 302.1,-40.73 427.68,-122.2 125.59,-81.46 224.03,-194.32 295.31,-338.58 71.27,-144.26 106.91,-308.04 106.91,-491.33 0,-186.69 -35.64,-353.01 -106.91,-498.97 -71.29,-145.96 -169.72,-259.67 -295.31,-341.13 -125.58,-81.47 -268.15,-122.2 -427.68,-122.2 -162.92,0 -308.04,40.73 -435.33,122.2 -127.29,81.47 -226.56,195.18 -297.85,341.13 -71.27,145.96 -106.92,310.58 -106.92,493.88 0,183.29 35.65,347.92 106.92,493.88 71.29,145.95 170.56,259.67 297.85,341.12 127.29,81.47 272.4,122.2 435.33,122.2zm1700.56 234.21l0 -2382.82 346.22 0 0 987.75 1415.43 0 0 -987.75 346.21 0 0 2382.82 -346.21 0 0 -1079.39 -1415.43 0 0 1079.39 -346.22 0zm2973.43 0l0 -2382.82 346.22 0 0 2382.82 -346.22 0zm173.1 -2846.14c-78.07,0 -143.4,-27.16 -196.02,-81.47 -52.61,-54.31 -78.92,-120.5 -78.92,-198.57 0,-74.67 26.31,-138.31 78.92,-190.93 52.61,-52.61 117.95,-78.92 196.02,-78.92 74.68,0 139.17,26.31 193.48,78.92 54.31,52.61 81.47,117.96 81.47,196.02 0,74.68 -27.16,139.17 -81.47,193.48 -54.31,54.31 -118.8,81.47 -193.48,81.47zm2036.61 2927.61c-230.82,0 -436.17,-54.31 -616.07,-162.94 -179.9,-108.62 -320.77,-259.67 -422.6,-453.14 -101.82,-193.48 -152.74,-412.41 -152.74,-656.8 0,-244.39 50.07,-463.33 150.2,-656.81 100.14,-193.47 240.15,-344.52 420.06,-453.14 179.9,-108.62 383.56,-162.92 610.98,-162.92 193.47,0 362.34,41.58 506.6,124.74 144.25,83.16 275.78,201.11 394.59,353.85l-254.57 198.57c-166.32,-240.99 -381.86,-361.5 -646.62,-361.5 -159.54,0 -302.95,40.73 -430.24,122.2 -127.29,81.47 -226.57,195.18 -297.85,341.13 -71.29,145.96 -106.92,310.58 -106.92,493.88 0,183.29 35.64,347.92 106.92,493.88 71.27,145.95 170.56,259.67 297.85,341.12 127.29,81.47 270.7,122.2 430.24,122.2 162.92,0 297,-28 402.23,-84.01 105.22,-56 200.27,-138.31 285.12,-246.93l269.85 188.38c-112.01,139.16 -250.34,250.34 -414.95,333.5 -164.63,83.16 -341.99,124.74 -532.06,124.74l-0.02 0zm3609.87 -2464.29l0 2382.82 -346.22 0 0 -351.32c-98.43,135.78 -218.94,241.85 -361.5,318.22 -142.56,76.37 -298.7,114.56 -468.41,114.56 -227.43,0 -431.08,-54.31 -610.98,-162.94 -179.9,-108.62 -320.77,-259.67 -422.59,-453.14 -101.83,-193.48 -152.75,-414.11 -152.75,-661.89 0,-244.39 50.07,-462.48 150.21,-654.27 100.13,-191.78 239.29,-341.97 417.5,-450.59 178.2,-108.62 381.01,-162.92 608.44,-162.92 173.11,0 331.79,38.18 476.05,114.56 144.26,76.37 265.61,184.14 364.04,323.3l0 -356.41 346.22 0 -0.01 0.02zm-1186.32 2148.61c162.92,0 308.03,-40.73 435.32,-122.2 127.29,-81.46 226.57,-195.18 297.85,-341.12 71.29,-145.96 106.92,-310.59 106.92,-493.88 0,-183.3 -35.64,-347.92 -106.92,-493.88 -71.27,-145.96 -170.56,-259.67 -297.85,-341.13 -127.29,-81.47 -272.39,-122.2 -435.32,-122.2 -159.54,0 -302.1,40.73 -427.69,122.2 -125.58,81.47 -224.03,194.32 -295.3,338.59 -71.29,144.25 -106.92,308.03 -106.92,491.33 0,186.69 35.64,353.01 106.92,498.97 71.27,145.95 169.72,259.67 295.3,341.12 125.59,81.47 268.15,122.2 427.69,122.2zm1583.45 234.21l911.38 -1252.51 -814.65 -1130.31 386.95 0 692.45 987.75 336.03 0 0 -987.75 346.22 0 0 987.75 336.04 0 692.44 -987.75 386.95 0 -814.63 1130.31 911.38 1252.51 -392.04 0 -789.18 -1079.39 -330.95 0 0 1079.39 -346.22 0 0 -1079.39 -330.94 0 -789.18 1079.39 -392.04 0 -0.01 0z"/>
</svg>
