<!--?xml version="1.0" encoding="UTF-8"?-->

<!-- Creator: CorelDRAW 2018 (64-Bit) -->
<svg xmlns="http://www.w3.org/2000/svg" xml:space="preserve" width="100%" height="100%" version="1.1" style="shape-rendering: geometricprecision; text-rendering: geometricprecision; image-rendering: optimizequality; fill-rule: evenodd; clip-rule: evenodd;" viewBox="0 0 18727 18562.13" xmlns:xlink="http://www.w3.org/1999/xlink" class="">
 <defs>
  <style type="text/css">

    .str0 {stroke:#2B2A29;stroke-width:20;stroke-miterlimit:22.9256}
    .str1 {stroke:#A75F4A;stroke-width:20;stroke-miterlimit:22.9256}
    .fil0 {fill:none;fill-rule:nonzero}

  </style>
 </defs>
 <g id="Layer_x0020_1">
  <metadata id="CorelCorpID_0Corel-Layer"></metadata>
  <path class="fil0 str0 UCNyvcHX_0" d="M10458.56 1575.7l0 2014.35 3361.06 3361.06 -3361.06 3361.06 0 1419.08 -330 0 0 -10155.55 330 0zm-850.74 -1561.57l6546.95 6562.36 -233.32 232.02 -6311.82 -6326.68 -6309.26 6326.68 -233.32 -232.02 6310.18 -6327.6 -2.73 -2.74 233.32 -232.02zm4704.86 5318.63l0 6398.49 -330 0 0 -6398.49 330 0zm-9031.11 0l0 6398.49 -330 0 0 -6398.49 330 0zm477.73 464.53l3011.08 3011.08 0 -7232.67 330 0 0 10155.55 -318.88 0 -11.61 11.68 -3243.26 -3231.86 232.02 -233.32 3011.73 3001.14 0 -2003.88 -3244.4 -3244.4 233.32 -233.32zm7593.68 1153.82l-2894.44 -2894.44 0 5788.88 2894.44 -2894.44zm-8406.08 11560.97l0 -1707.25 187.75 0 0 1552.05 768.51 0 0 155.2 -956.26 0zm1910.02 -1171.54l172.73 0 -425.57 1171.54 -187.74 0 -423.06 -1171.54 177.73 0 345.46 988.8 340.45 -988.8zm473.12 1171.54l0 -1171.54 170.22 0 0 1171.54 -170.22 0zm85.11 -1399.34c-38.38,0 -70.51,-13.36 -96.37,-40.06 -25.87,-26.7 -38.81,-59.24 -38.81,-97.63 0,-36.71 12.94,-68 38.81,-93.87 25.86,-25.87 57.99,-38.8 96.37,-38.8 36.72,0 68.43,12.93 95.13,38.8 26.7,25.87 40.05,57.99 40.05,96.38 0,36.71 -13.35,68.42 -40.05,95.12 -26.7,26.7 -58.41,40.06 -95.13,40.06zm1251.65 227.8l172.73 0 -425.57 1171.54 -187.74 0 -423.06 -1171.54 177.73 0 345.46 988.8 340.45 -988.8zm2936.37 -535.71l210.28 0 0 1707.25 -185.25 0 0 -1364.3 -570.75 1364.3 -175.23 0 -545.72 -1359.29 0 1359.29 -187.75 0 0 -1707.25 230.31 0 598.29 1496.97 625.82 -1496.97zm1657.18 535.71l0 1171.54 -170.22 0 0 -172.73c-48.4,66.76 -107.64,118.91 -177.74,156.46 -70.09,37.55 -146.86,56.32 -230.3,56.32 -111.81,0 -211.94,-26.7 -300.39,-80.1 -88.45,-53.41 -157.71,-127.67 -207.78,-222.8 -50.06,-95.12 -75.1,-203.6 -75.1,-325.43 0,-120.15 24.62,-227.38 73.85,-321.67 49.23,-94.29 117.65,-168.14 205.27,-221.54 87.62,-53.41 187.33,-80.11 299.14,-80.11 85.12,0 163.14,18.78 234.06,56.33 70.93,37.55 130.59,90.53 178.99,158.96l0 -175.23 170.22 0zm-583.27 1056.39c80.11,0 151.45,-20.03 214.04,-60.08 62.58,-40.05 111.39,-95.96 146.44,-167.72 35.05,-71.76 52.57,-152.7 52.57,-242.82 0,-90.12 -17.52,-171.06 -52.57,-242.82 -35.05,-71.76 -83.86,-127.67 -146.44,-167.72 -62.59,-40.06 -133.93,-60.08 -214.04,-60.08 -78.43,0 -148.52,20.02 -210.27,60.08 -61.75,40.05 -110.15,95.54 -145.19,166.47 -35.05,70.92 -52.57,151.45 -52.57,241.56 0,91.79 17.52,173.57 52.57,245.33 35.04,71.76 83.44,127.67 145.19,167.72 61.75,40.05 131.84,60.08 210.27,60.08zm911.2 115.15l0 -1817.4 170.23 0 0 1817.4 -170.23 0zm508.17 0l0 -1817.4 170.23 0 0 1817.4 -170.23 0z"></path>
  <path class="fil0 str1 UCNyvcHX_1" d="M1512.87 13583.15c178.59,45.41 316.32,133.19 413.18,263.35 96.86,130.15 145.29,301.18 145.29,513.06 0,275.45 -83.24,492.63 -249.72,651.55 -166.48,158.91 -395.01,238.37 -685.6,238.37l-1126.02 0 0 -3096.55 1021.59 0c275.45,0 491.88,71.89 649.28,215.67 157.4,143.78 236.1,335.23 236.1,574.36 0,154.37 -34.81,286.8 -104.43,397.28 -69.62,110.48 -169.51,191.46 -299.67,242.91zm-1162.34 -108.97l721.93 0c323.88,0 485.82,-177.07 485.82,-531.22 0,-160.43 -46.92,-284.54 -140.75,-372.32 -93.84,-87.78 -224,-131.67 -390.48,-131.67l-676.52 0 0 1035.21zm740.09 1493.8c193.72,0 345.82,-54.49 456.31,-163.46 110.48,-108.97 165.72,-257.29 165.72,-444.96 0,-187.67 -55.24,-335.23 -165.72,-442.69 -110.49,-107.45 -262.59,-161.18 -456.31,-161.18l-740.09 0 0 1212.29 740.09 0zm2370.09 -1916.05c190.69,0 363.23,46.91 517.6,140.75 154.38,93.83 275.45,221.72 363.23,383.66 87.78,161.94 131.68,342.8 131.68,542.58 0,57.51 -1.52,101.4 -4.55,131.67l-1748.05 0c12.11,217.94 83.24,404.1 213.4,558.47 130.16,154.37 307.23,231.56 531.23,231.56 181.61,0 332.2,-34.05 451.77,-102.16 119.56,-68.1 215.67,-162.7 288.31,-283.77l245.18 163.45c-99.89,157.4 -231.56,280.75 -395.01,370.04 -163.46,89.3 -357.18,133.95 -581.17,133.95 -205.83,0 -388.96,-48.43 -549.39,-145.3 -160.43,-96.86 -286.05,-231.56 -376.85,-404.09 -90.81,-172.54 -136.22,-367.77 -136.22,-585.71 0,-217.94 44.65,-413.18 133.95,-585.72 89.29,-172.53 213.39,-307.23 372.31,-404.09 158.91,-96.86 339.77,-145.29 542.58,-145.29zm703.76 944.4c-30.27,-220.97 -104.43,-386.69 -222.48,-497.17 -118.05,-110.49 -278.48,-165.73 -481.28,-165.73 -196.75,0 -357.94,62.81 -483.56,188.43 -125.61,125.62 -205.07,283.77 -238.37,474.47l1425.69 0zm1816.16 -944.4c202.8,0 384.42,48.43 544.85,145.29 160.42,96.86 286.04,231.56 376.85,404.09 90.81,172.54 136.21,369.29 136.21,590.26 0,217.94 -44.65,412.42 -133.94,583.44 -89.3,171.02 -213.4,304.96 -372.31,401.82 -158.92,96.87 -339.78,145.3 -542.58,145.3 -154.37,0 -295.88,-34.06 -424.53,-102.16 -128.64,-68.11 -236.86,-164.21 -324.64,-288.32l0 1225.91 -308.74 0 0 -3032.99 308.74 0 0 313.29c87.78,-121.08 195.24,-215.67 322.37,-283.77 127.13,-68.11 266.37,-102.16 417.72,-102.16zm9.08 1988.69c142.26,0 269.4,-36.32 381.39,-108.97 112,-72.64 199.78,-173.29 263.35,-301.93 63.56,-128.65 95.34,-274.7 95.34,-438.15 0,-166.48 -31.78,-314.8 -95.34,-444.96 -63.57,-130.16 -151.35,-231.56 -263.35,-304.21 -111.99,-72.65 -239.13,-108.97 -381.39,-108.97 -145.29,0 -274.7,36.32 -388.21,108.97 -113.51,72.65 -202.04,174.05 -265.61,304.21 -63.56,130.16 -95.35,276.96 -95.35,440.42 0,163.45 31.79,310.26 95.35,440.42 63.57,130.15 152.1,231.56 265.61,304.2 113.51,72.65 242.92,108.97 388.21,108.97zm1516.49 208.86l0 -2124.91 308.75 0 0 880.84 1262.23 0 0 -880.84 308.74 0 0 2124.91 -308.74 0 0 -962.56 -1262.23 0 0 962.56 -308.75 0zm2651.59 0l0 -2124.91 308.75 0 0 2124.91 -308.75 0zm154.37 -2538.08c-69.62,0 -127.88,-24.22 -174.8,-72.65 -46.92,-48.43 -70.38,-107.46 -70.38,-177.08 0,-66.59 23.46,-123.34 70.38,-170.26 46.92,-46.92 105.18,-70.38 174.8,-70.38 66.6,0 124.11,23.46 172.54,70.38 48.43,46.92 72.65,105.19 72.65,174.8 0,66.6 -24.22,124.11 -72.65,172.54 -48.43,48.43 -105.94,72.65 -172.54,72.65zm1816.17 2610.73c-205.84,0 -388.96,-48.43 -549.39,-145.3 -160.43,-96.86 -286.05,-231.56 -376.86,-404.09 -90.8,-172.54 -136.21,-367.77 -136.21,-585.71 0,-217.94 44.65,-413.18 133.94,-585.72 89.3,-172.53 214.16,-307.23 374.59,-404.09 160.43,-96.86 342.04,-145.29 544.85,-145.29 172.53,0 323.12,37.08 451.77,111.24 128.64,74.16 245.93,179.34 351.88,315.55l-227.02 177.08c-148.32,-214.91 -340.53,-322.37 -576.63,-322.37 -142.27,0 -270.16,36.32 -383.67,108.97 -113.51,72.65 -202.05,174.05 -265.61,304.21 -63.57,130.16 -95.35,276.96 -95.35,440.42 0,163.45 31.78,310.26 95.35,440.42 63.56,130.15 152.1,231.56 265.61,304.2 113.51,72.65 241.4,108.97 383.67,108.97 145.29,0 264.85,-24.97 358.69,-74.92 93.83,-49.94 178.59,-123.34 254.26,-220.2l240.64 167.99c-99.89,124.1 -223.24,223.24 -370.04,297.4 -146.81,74.16 -304.97,111.24 -474.47,111.24zm3219.14 -2197.56l0 2124.91 -308.75 0 0 -313.29c-87.78,121.08 -195.24,215.67 -322.37,283.78 -127.13,68.1 -266.37,102.16 -417.71,102.16 -202.81,0 -384.42,-48.43 -544.85,-145.3 -160.43,-96.86 -286.05,-231.56 -376.85,-404.09 -90.81,-172.54 -136.22,-369.29 -136.22,-590.25 0,-217.94 44.65,-412.42 133.95,-583.45 89.29,-171.02 213.39,-304.96 372.31,-401.82 158.91,-96.86 339.77,-145.29 542.58,-145.29 154.37,0 295.88,34.05 424.52,102.16 128.65,68.1 236.86,164.21 324.64,288.31l0 -317.83 308.75 0zm-1057.91 1916.05c145.29,0 274.69,-36.32 388.2,-108.97 113.51,-72.64 202.05,-174.05 265.61,-304.2 63.57,-130.16 95.35,-276.97 95.35,-440.42 0,-163.46 -31.78,-310.26 -95.35,-440.42 -63.56,-130.16 -152.1,-231.56 -265.61,-304.21 -113.51,-72.65 -242.91,-108.97 -388.2,-108.97 -142.27,0 -269.4,36.32 -381.4,108.97 -111.99,72.65 -199.78,173.29 -263.34,301.94 -63.57,128.64 -95.35,274.69 -95.35,438.15 0,166.48 31.78,314.8 95.35,444.96 63.56,130.15 151.35,231.56 263.34,304.2 112,72.65 239.13,108.97 381.4,108.97zm1412.06 208.86l812.73 -1116.94 -726.47 -1007.97 345.07 0 617.5 880.84 299.66 0 0 -880.84 308.75 0 0 880.84 299.67 0 617.49 -880.84 345.07 0 -726.46 1007.97 812.73 1116.94 -349.61 0 -703.76 -962.56 -295.13 0 0 962.56 -308.75 0 0 -962.56 -295.12 0 -703.76 962.56 -349.61 0z"></path>
 </g>
<style data-made-with="vivus-instant">.UCNyvcHX_0{stroke-dasharray:188007 188009;stroke-dashoffset:188008;}.start .UCNyvcHX_0{animation:UCNyvcHX_draw_0 14200ms ease-in-out 0ms infinite,UCNyvcHX_fade 14200ms linear 0ms infinite;}.UCNyvcHX_1{stroke-dasharray:106591 106593;stroke-dashoffset:106592;}.start .UCNyvcHX_1{animation:UCNyvcHX_draw_1 14200ms ease-in-out 0ms infinite,UCNyvcHX_fade 14200ms linear 0ms infinite;}@keyframes UCNyvcHX_draw{100%{stroke-dashoffset:0;}}@keyframes UCNyvcHX_fade{0%{stroke-opacity:1;}97.1830985915493%{stroke-opacity:1;}100%{stroke-opacity:0;}}@keyframes UCNyvcHX_draw_0{5.633802816901409%{stroke-dashoffset: 188008}74.64788732394366%{ stroke-dashoffset: 0;}100%{ stroke-dashoffset: 0;}}@keyframes UCNyvcHX_draw_1{7.042253521126761%{stroke-dashoffset: 106592}76.05633802816901%{ stroke-dashoffset: 0;}100%{ stroke-dashoffset: 0;}}</style></svg>
